<svg id="Layer_1" enable-background="new 0 0 512.022 512.022" height="512" viewBox="0 0 512.022 512.022" width="512" xmlns="http://www.w3.org/2000/svg"><g><g><path d="m482.012 252.022h-15.002v-70c0-37.157-29.105-67.632-65.714-69.856l-97.55-97.55c-19.339-19.339-50.705-19.484-70.237-.451-19.531-19.032-50.897-18.888-70.237.451l-97.55 97.55c-36.606 2.224-65.712 32.698-65.712 69.856v260c0 38.598 31.402 69.999 70 69.999h327c38.598 0 70-31.402 70-69.999v-70h15.002c16.542 0 30-13.458 30-30v-60c0-16.542-13.458-30-30-30zm-192.408-223.264 83.264 83.264h-208.954l83.263-83.264c11.696-11.697 30.73-11.697 42.427 0zm-112.188 0c11.538-11.538 30.209-11.686 41.939-.463l-83.726 83.726h-41.476zm269.594 413.264c0 27.57-22.43 50-50 50h-327c-27.57 0-50-22.43-50-50v-260c0-27.57 22.43-50 50-50h327c27.57 0 50 22.43 50 50v70h-25v-70c0-13.785-11.215-25-25-25h-118.496c-5.523 0-10 4.477-10 10s4.477 10 10 10h118.496c2.71 0 5 2.29 5 5v70h-29.999c-33.084 0-60 26.916-60 60s26.916 60 60 60h29.999v70c0 2.71-2.29 5-5 5h-327c-2.71 0-5-2.29-5-5v-260c0-2.71 2.29-5 5-5h118.504c5.523 0 10-4.477 10-10s-4.477-10-10-10h-118.504c-13.785 0-25 11.215-25 25v260c0 13.785 11.215 25 25 25h327c13.785 0 25-11.215 25-25v-70h25zm45.002-100c0 5.514-4.486 10-10 10h-110c-22.056 0-40-17.944-40-40s17.944-40 40-40h110c5.514 0 10 4.486 10 10z"/><path d="m233.518 177.022c5.523 0 10-4.477 10-10s-4.477-10-10-10h-.008c-5.523 0-9.996 4.477-9.996 10s4.481 10 10.004 10z"/></g></g></svg>