<svg height="512" viewBox="0 0 128 128" width="512" xmlns="http://www.w3.org/2000/svg"><g><path d="m64 17.25a46.75 46.75 0 1 0 46.75 46.75 46.8 46.8 0 0 0 -46.75-46.75zm0 90a43.25 43.25 0 1 1 43.25-43.25 43.3 43.3 0 0 1 -43.25 43.25z"/><path d="m71.9 66.724h-13.365a1.75 1.75 0 0 0 -1.75 1.75v7.026a1.75 1.75 0 0 0 1.75 1.75h13.365a5.264 5.264 0 0 0 0-10.528zm0 7.028h-11.615v-3.528h11.615a1.764 1.764 0 0 1 0 3.528z"/><path d="m73.856 44.072v-3.216a5.176 5.176 0 1 0 -10.351 0v3.18h-2.731v-3.18a5.176 5.176 0 1 0 -10.351 0v3.18h-2.734a5.665 5.665 0 1 0 0 11.33h1.266v18.386h-1.266a5.665 5.665 0 1 0 0 11.33h2.734v3.181a5.176 5.176 0 1 0 10.351 0v-3.181h2.731v3.181a5.176 5.176 0 1 0 10.351 0v-3.217a13.074 13.074 0 0 0 9.792-20.487 13.074 13.074 0 0 0 -9.792-20.487zm6.259 21.636a9.576 9.576 0 0 1 -7.233 15.874h-.776a1.751 1.751 0 0 0 -1.75 1.75v4.931a1.676 1.676 0 1 1 -3.351 0v-4.931a1.751 1.751 0 0 0 -1.75-1.75h-6.231a1.751 1.751 0 0 0 -1.75 1.75v4.931a1.676 1.676 0 1 1 -3.351 0v-4.931a1.751 1.751 0 0 0 -1.75-1.75h-4.484a2.165 2.165 0 1 1 0-4.33h3.016a1.751 1.751 0 0 0 1.75-1.75v-21.886a1.751 1.751 0 0 0 -1.75-1.75h-3.016a2.165 2.165 0 1 1 0-4.33h4.484a1.751 1.751 0 0 0 1.75-1.75v-4.93a1.676 1.676 0 1 1 3.351 0v4.93a1.751 1.751 0 0 0 1.75 1.75h6.231a1.751 1.751 0 0 0 1.75-1.75v-4.93a1.676 1.676 0 1 1 3.351 0v4.93a1.751 1.751 0 0 0 1.75 1.75h.776a9.577 9.577 0 0 1 7.233 15.875 1.75 1.75 0 0 0 0 2.297z"/><path d="m71.9 51.866h-13.365a1.75 1.75 0 0 0 -1.75 1.75v7.028a1.75 1.75 0 0 0 1.75 1.75h13.365a5.264 5.264 0 0 0 0-10.528zm0 7.028h-11.615v-3.528h11.615a1.764 1.764 0 0 1 0 3.528z"/></g></svg>