<svg id="Capa_1" enable-background="new 0 0 512 512" height="512" viewBox="0 0 512 512" width="512" xmlns="http://www.w3.org/2000/svg"><g><path d="m406.029 421.077h15.006v15.006h-15.006z"/><path d="m418.018 75.917h-357.993v75.072h-60.025v247.579c0 20.686 16.829 37.516 37.516 37.516h353.507v-15.006h-323.513c4.72-6.274 7.521-14.071 7.521-22.509v-127.54h-15.006v127.539c0 12.412-10.097 22.509-22.509 22.509s-22.509-10.097-22.509-22.509v-232.573h45.019v90.028h15.006v-165.1h331.975v15.027h-196.059v15.006h196.058v30.032h-286.062v-30.032h74.998v-15.006h-90.004v60.045h301.069v15.018h89.988v217.555c0 12.412-10.098 22.509-22.509 22.509h-38.443v15.006h38.443c20.686 0 37.516-16.829 37.516-37.516v-228.71zm3.994 25.21 64.908 64.88h-64.908z"/><path d="m105.938 406.074h135.088v-225.093h-135.088zm15.006-210.087h105.075v195.081h-105.075z"/><path d="m30.012 180.992h15.006v15.006h-15.006z"/><path d="m30.012 211.004h15.006v15.006h-15.006z"/><path d="m255.967 196.02h97.446v15.006h-97.446z"/><path d="m369.121 196.02h96.947v15.006h-96.947z"/><path d="m255.967 226.032h97.446v15.006h-97.446z"/><path d="m369.121 226.032h96.947v15.006h-96.947z"/><path d="m255.967 256.044h97.446v15.006h-97.446z"/><path d="m369.121 256.044h96.947v15.006h-96.947z"/><path d="m255.967 286.057h97.446v15.006h-97.446z"/><path d="m369.121 286.057h96.947v15.006h-96.947z"/><path d="m255.967 316.069h97.446v15.006h-97.446z"/><path d="m369.121 316.069h96.947v15.006h-96.947z"/><path d="m255.967 346.082h97.446v15.006h-97.446z"/><path d="m369.121 346.082h96.947v15.006h-96.947z"/><path d="m255.967 376.094h97.446v15.006h-97.446z"/><path d="m369.121 376.094h96.947v15.006h-96.947z"/><path d="m135.95 211.004h15.006v15.006h-15.006z"/><path d="m135.95 240.994h15.006v15.006h-15.006z"/></g></svg>